ffmpeg started on 2025-06-27 at 12:07:07
Report written to "D:\Convert\FFMetrics\reports\ssim_report-6.txt"
Log level: 32
Command line:
ffmpeg -hide_banner -nostdin -i "G:\\\xc0\xed\xe8\xec\xe5\\[\xd2\xee\xef]\\\xcf\xee\xe2\xe5\xeb\xe8\xf2\xe5\xeb\xfc\\\xd2\xc2-3\\Special\\[Ohys-Raws] Overlord III - Sp.02 (BDRip-720p)_HEVC.mkv" -i "G:\\\xc0\xed\xe8\xec\xe5\\[\xd2\xee\xef]\\\xcf\xee\xe2\xe5\xeb\xe8\xf2\xe5\xeb\xfc\\\xd2\xc2-3\\Special\\[Ohys-Raws] Overlord III - Sp.02 (BDRip-720p).mkv" -lavfi "[0:v]settb=AVTB,setpts=PTS-STARTPTS,format=pix_fmts=yuv420p10,fps=24000/1001,scale=1280:720:flags=bicubic[main];[1:v]settb=AVTB,setpts=PTS-STARTPTS,format=pix_fmts=yuv420p,fps=24000/1001,scale=1280:720:flags=bicubic[ref];[main][ref]ssim=eof_action=endall:stats_file='D\\:/Convert/FFMetrics/logs/ssim_logfile-6.txt'" -f null -
Input #0, matroska,webm, from 'G:\Аниме\[Топ]\Повелитель\ТВ-3\Special\[Ohys-Raws] Overlord III - Sp.02 (BDRip-720p)_HEVC.mkv':
  Metadata:
    ENCODER         : Lavf61.7.100
  Duration: 00:01:32.12, start: -0.015000, bitrate: 545 kb/s
  Stream #0:0(jpn): Video: hevc (Main 10), yuv420p10le(tv, bt709, progressive), 1280x720 [SAR 1:1 DAR 16:9], 23.98 fps, 23.98 tbr, 1k tbn (default)
      Metadata:
        ENCODER         : Lavc61.19.100 libx265
        BPS             : 346402
        DURATION        : 00:01:32.091708333
        NUMBER_OF_FRAMES: 2208
        NUMBER_OF_BYTES : 3987570
        _STATISTICS_WRITING_APP: mkvpropedit v66.0.0 ('Josie') 64-bit
        _STATISTICS_WRITING_DATE_UTC: 2025-06-27 08:29:34
        _STATISTICS_TAGS: BPS DURATION NUMBER_OF_FRAMES NUMBER_OF_BYTES
  Stream #0:1(jpn): Audio: aac (LC), 48000 Hz, stereo, fltp (default)
      Metadata:
        ENCODER         : Lavc61.19.100 aac
        BPS             : 194540
        DURATION        : 00:01:32.095000000
        NUMBER_OF_FRAMES: 4318
        NUMBER_OF_BYTES : 2239527
        _STATISTICS_WRITING_APP: mkvpropedit v66.0.0 ('Josie') 64-bit
        _STATISTICS_WRITING_DATE_UTC: 2025-06-27 08:29:34
        _STATISTICS_TAGS: BPS DURATION NUMBER_OF_FRAMES NUMBER_OF_BYTES
Input #1, matroska,webm, from 'G:\Аниме\[Топ]\Повелитель\ТВ-3\Special\[Ohys-Raws] Overlord III - Sp.02 (BDRip-720p).mkv':
  Metadata:
    encoder         : libebml v1.2.3 + libmatroska v1.3.0
    creation_time   : 2019-10-11T20:54:10.000000Z
  Duration: 00:01:32.10, start: 0.000000, bitrate: 1269 kb/s
  Stream #1:0(jpn): Video: h264 (Main), yuv420p(progressive), 1280x720 [SAR 1:1 DAR 16:9], 23.98 fps, 23.98 tbr, 1k tbn (default)
  Stream #1:1(jpn): Audio: aac (LC), 48000 Hz, stereo, fltp (default)
Stream mapping:
  Stream #0:0 (hevc) -> settb:default
  Stream #1:0 (h264) -> settb:default
  ssim:default -> Stream #0:0 (wrapped_avframe)
  Stream #0:1 -> #0:1 (aac (native) -> pcm_s16le (native))
[swscaler @ 000001d8e734fb40] No accelerated colorspace conversion found from yuv420p to bgr48le.
[swscaler @ 000001d8e752b680] No accelerated colorspace conversion found from yuv420p to bgr48le.
[swscaler @ 000001d8e75da080] No accelerated colorspace conversion found from yuv420p to bgr48le.
[swscaler @ 000001d8e76e3a80] No accelerated colorspace conversion found from yuv420p to bgr48le.
[swscaler @ 000001d8e7838740] No accelerated colorspace conversion found from yuv420p to bgr48le.
[swscaler @ 000001d8e7989dc0] No accelerated colorspace conversion found from yuv420p to bgr48le.
[swscaler @ 000001d8e7b4b040] No accelerated colorspace conversion found from yuv420p to bgr48le.
[swscaler @ 000001d8e7c37680] No accelerated colorspace conversion found from yuv420p to bgr48le.
[swscaler @ 000001d8e7d13040] No accelerated colorspace conversion found from yuv420p to bgr48le.
[swscaler @ 000001d8e7d90040] No accelerated colorspace conversion found from yuv420p to bgr48le.
[swscaler @ 000001d8e7dee040] No accelerated colorspace conversion found from yuv420p to bgr48le.
[swscaler @ 000001d8e7e4e040] No accelerated colorspace conversion found from yuv420p to bgr48le.
[swscaler @ 000001d8e7ea9040] No accelerated colorspace conversion found from yuv420p to bgr48le.
[swscaler @ 000001d8e7f40040] No accelerated colorspace conversion found from yuv420p to bgr48le.
[swscaler @ 000001d8e7fab040] No accelerated colorspace conversion found from yuv420p to bgr48le.
[swscaler @ 000001d8e800a040] No accelerated colorspace conversion found from yuv420p to bgr48le.
Output #0, null, to 'pipe:':
  Metadata:
    encoder         : Lavf61.7.100
  Stream #0:0: Video: wrapped_avframe, yuv420p10le(tv, bt709, progressive), 1280x720 [SAR 1:1 DAR 16:9], q=2-31, 200 kb/s, 23.98 fps, 23.98 tbn
      Metadata:
        encoder         : Lavc61.19.100 wrapped_avframe
  Stream #0:1(jpn): Audio: pcm_s16le, 48000 Hz, stereo, s16, 1536 kb/s (default)
      Metadata:
        _STATISTICS_TAGS: BPS DURATION NUMBER_OF_FRAMES NUMBER_OF_BYTES
        BPS             : 194540
        DURATION        : 00:01:32.095000000
        NUMBER_OF_FRAMES: 4318
        NUMBER_OF_BYTES : 2239527
        _STATISTICS_WRITING_APP: mkvpropedit v66.0.0 ('Josie') 64-bit
        _STATISTICS_WRITING_DATE_UTC: 2025-06-27 08:29:34
        encoder         : Lavc61.19.100 pcm_s16le
frame=   78 fps=0.0 q=-0.0 size=N/A time=00:00:03.25 bitrate=N/A speed=6.21x    frame=  165 fps=160 q=-0.0 size=N/A time=00:00:06.88 bitrate=N/A speed=6.66x    frame=  260 fps=167 q=-0.0 size=N/A time=00:00:10.84 bitrate=N/A speed=6.96x    frame=  349 fps=169 q=-0.0 size=N/A time=00:00:14.55 bitrate=N/A speed=7.04x    frame=  439 fps=170 q=-0.0 size=N/A time=00:00:18.30 bitrate=N/A speed= 7.1x    frame=  531 fps=171 q=-0.0 size=N/A time=00:00:22.14 bitrate=N/A speed=7.14x    frame=  625 fps=173 q=-0.0 size=N/A time=00:00:26.06 bitrate=N/A speed= 7.2x    frame=  719 fps=173 q=-0.0 size=N/A time=00:00:29.98 bitrate=N/A speed=7.23x    frame=  811 fps=174 q=-0.0 size=N/A time=00:00:33.82 bitrate=N/A speed=7.25x    frame=  895 fps=173 q=-0.0 size=N/A time=00:00:37.32 bitrate=N/A speed=7.22x    frame=  988 fps=173 q=-0.0 size=N/A time=00:00:41.20 bitrate=N/A speed=7.23x    frame= 1073 fps=173 q=-0.0 size=N/A time=00:00:44.75 bitrate=N/A speed=7.21x    frame= 1168 fps=174 q=-0.0 size=N/A time=00:00:48.71 bitrate=N/A speed=7.24x    frame= 1259 fps=174 q=-0.0 size=N/A time=00:00:52.51 bitrate=N/A speed=7.26x    frame= 1352 fps=174 q=-0.0 size=N/A time=00:00:56.38 bitrate=N/A speed=7.26x    frame= 1438 fps=174 q=-0.0 size=N/A time=00:00:59.97 bitrate=N/A speed=7.25x    frame= 1531 fps=174 q=-0.0 size=N/A time=00:01:03.85 bitrate=N/A speed=7.27x    frame= 1619 fps=174 q=-0.0 size=N/A time=00:01:07.52 bitrate=N/A speed=7.25x    frame= 1714 fps=175 q=-0.0 size=N/A time=00:01:11.48 bitrate=N/A speed=7.28x    frame= 1806 fps=175 q=-0.0 size=N/A time=00:01:15.32 bitrate=N/A speed=7.29x    frame= 1895 fps=175 q=-0.0 size=N/A time=00:01:19.03 bitrate=N/A speed=7.28x    frame= 1990 fps=175 q=-0.0 size=N/A time=00:01:22.99 bitrate=N/A speed= 7.3x    frame= 2078 fps=175 q=-0.0 size=N/A time=00:01:26.66 bitrate=N/A speed= 7.3x    frame= 2174 fps=175 q=-0.0 size=N/A time=00:01:30.67 bitrate=N/A speed=7.31x    [Parsed_ssim_10 @ 000001d8dadf9400] SSIM Y:0.991602 (20.758126) U:0.990735 (20.331684) V:0.990866 (20.393591) All:0.991335 (20.622216)
[out#0/null @ 000001d8dae6cfc0] video:949KiB audio:17272KiB subtitle:0KiB other streams:0KiB global headers:0KiB muxing overhead: unknown
frame= 2208 fps=175 q=-0.0 Lsize=N/A time=00:01:32.09 bitrate=N/A speed=7.32x    
